<?xml version="1.0" encoding="UTF-8" standalone="no"?>
<!-- Created with Inkscape (http://www.inkscape.org/) -->

<svg
   version="1.1"
   id="svg2"
   width="789.25336"
   height="241.06667"
   viewBox="0 0 789.25336 241.06667"
   sodipodi:docname="LOGO_Semple Math.eps"
   xmlns:inkscape="http://www.inkscape.org/namespaces/inkscape"
   xmlns:sodipodi="http://sodipodi.sourceforge.net/DTD/sodipodi-0.dtd"
   xmlns="http://www.w3.org/2000/svg"
   xmlns:svg="http://www.w3.org/2000/svg">
  <defs
     id="defs6">
    <clipPath
       clipPathUnits="userSpaceOnUse"
       id="clipPath68">
      <path
         d="M 4755.59,492.43 H 1163.82 v 819.87 l 3591.77,-0.02 V 492.43"
         id="path66" />
    </clipPath>
    <clipPath
       clipPathUnits="userSpaceOnUse"
       id="clipPath74">
      <path
         d="M 805.262,700.93 3854.01,-1059.26 5106.92,1110.85 2058.18,2871.06 Z"
         id="path72" />
    </clipPath>
    <clipPath
       clipPathUnits="userSpaceOnUse"
       id="clipPath80">
      <path
         d="M 1880.68,4733.73 6808.8,1888.48 4031.51,-2921.93 -896.613,-76.6797 Z"
         id="path78" />
    </clipPath>
    <linearGradient
       x1="0"
       y1="0"
       x2="1"
       y2="0"
       gradientUnits="userSpaceOnUse"
       gradientTransform="matrix(3048.75,-1760.19,-1287.61,-2230.21,2075.52,2901.11)"
       spreadMethod="pad"
       id="linearGradient86">
      <stop
         style="stop-opacity:1;stop-color:#f4f4f4"
         offset="0"
         id="stop82" />
      <stop
         style="stop-opacity:1;stop-color:#e9e9e9"
         offset="1"
         id="stop84" />
    </linearGradient>
  </defs>
  <sodipodi:namedview
     id="namedview4"
     pagecolor="#ffffff"
     bordercolor="#000000"
     borderopacity="0.25"
     inkscape:showpageshadow="2"
     inkscape:pageopacity="0.0"
     inkscape:pagecheckerboard="0"
     inkscape:deskcolor="#d1d1d1" />
  <g
     id="g8"
     inkscape:groupmode="layer"
     inkscape:label="ink_ext_XXXXXX"
     transform="matrix(1.3333333,0,0,-1.3333333,0,241.06667)">
    <g
       id="g10"
       transform="scale(0.1)">
      <path
         d="M 3799.03,0 H 983.926 c -53.301,0 -93.434,41.4414 -93.434,96.5195 l -0.121,176.1915 c -4.101,51.238 -42.09,85.641 -94.437,85.641 H 595.867 c -53.304,0 -93.465,41.48 -93.465,96.527 L 502.594,629 c -4.125,51.23 -42.082,85.641 -94.438,85.641 L 93.4609,714.672 C 40.2031,714.672 0,756.18 0,811.199 c 0,58.071 0.0625,193.661 0.53125,198.771 5.05078,52.94 43.16015,89.91 92.77345,89.91 l 185.0313,0.02 c 56.547,0 99.199,44.14 99.199,102.6 l 0.574,167.43 c 4.973,52.92 43.153,89.87 92.731,89.87 l 320.297,0.12 c 56.543,0 99.172,44.09 99.172,102.59 l 0.687,155.58 c 5.004,52.94 43.164,89.9 92.774,89.9 h 3834.98 c 52.33,0 90.3,-34.42 94.39,-85.63 l 0.29,-166.03 c 0,-55.03 40.15,-96.53 93.49,-96.53 h 243.5 c 52.37,0 90.32,-34.42 94.42,-85.63 l 0.29,-177.65 c 0,-55.04 40.18,-96.52 93.44,-96.52 l 385.98,-0.12 c 52.39,0 90.34,-34.42 94.48,-86.02 0.35,-4.67 0.35,-194.672 0.35,-196.618 0,-58.461 -42.62,-102.551 -99.2,-102.551 l -250.27,-0.101 c -49.62,0 -87.8,-36.949 -92.81,-89.899 l 0.1,-163.761 c 0,-58.481 -42.66,-102.578 -99.23,-102.578 h -371.95 c -49.63,0 -87.77,-36.954 -92.79,-89.872 l 0.3,-165.929 C 4913.53,44.0703 4870.9,0 4814.36,0 H 3799.03"
         style="fill:#e9e9e9;fill-opacity:1;fill-rule:nonzero;stroke:none"
         id="path12" />
      <path
         d="m 2437.39,1171.14 c 0,2.36 0.13,192.36 0.34,194.7 2.59,27.37 20.17,50.59 49.59,50.59 31.88,0 772.84,-0.01 803.21,-0.01 28.46,0 48.75,-16.1 51.12,-45.69 0.2,-1.91 0.28,-191.51 0.28,-193.51 0,-33.44 -22.43,-59.21 -55.79,-59.21 -33.43,0 -768.3,0 -798.67,0 -30.36,0 -50.08,22.77 -50.08,53.13"
         style="fill:#aa0c31;fill-opacity:1;fill-rule:nonzero;stroke:none"
         id="path14" />
      <path
         d="m 4397.32,1171.14 c 0,2.36 0.09,192.36 0.35,194.7 2.58,27.37 20.19,50.58 49.59,50.58 31.87,0 772.8,0 803.16,0 28.51,0 48.8,-16.1 51.16,-45.69 0.16,-1.91 0.27,-191.51 0.27,-193.51 0,-33.43 -22.42,-59.21 -55.78,-59.21 -33.45,0 -768.3,0 -798.66,0 -30.36,0 -50.09,22.77 -50.09,53.13"
         style="fill:#aa0c31;fill-opacity:1;fill-rule:nonzero;stroke:none"
         id="path16" />
      <path
         d="m 1415.04,1171.14 c 0,2.36 0.09,192.35 0.31,194.69 2.58,27.38 20.23,50.6 49.59,50.6 31.87,0 817.63,0 847.99,0 28.54,0 48.83,-16.11 51.2,-45.7 0.15,-1.91 0.22,-191.51 0.22,-193.51 0,-33.44 -22.41,-59.21 -55.8,-59.21 -33.42,0 -813.05,0 -843.43,0 -30.36,0 -50.08,22.77 -50.08,53.13"
         style="fill:#aa0c31;fill-opacity:1;fill-rule:nonzero;stroke:none"
         id="path18" />
      <path
         d="m 420.941,1171.14 c 0,2.36 0.133,192.35 0.348,194.69 2.582,27.38 20.191,50.6 49.551,50.6 31.914,0 817.63,0 847.99,0 28.55,0 48.83,-16.11 51.17,-45.7 0.19,-1.91 0.25,-191.51 0.25,-193.52 0,-33.41 -22.36,-59.2 -55.8,-59.2 -33.41,0 -813.059,0.01 -843.419,0.01 -30.367,0 -50.09,22.75 -50.09,53.12"
         style="fill:#aa0c31;fill-opacity:1;fill-rule:nonzero;stroke:none"
         id="path20" />
      <path
         d="m 3407.96,1171.14 c 0,2.36 0.09,192.36 0.32,194.7 2.57,27.37 20.18,50.58 49.56,50.58 31.9,0 817.61,0 847.98,0 28.54,0 48.86,-16.1 51.21,-45.69 0.13,-1.91 0.22,-191.51 0.22,-193.51 0,-33.43 -22.36,-59.21 -55.8,-59.21 -33.39,0 -813.06,0 -843.43,0 -30.37,0 -50.06,22.77 -50.06,53.13"
         style="fill:#aa0c31;fill-opacity:1;fill-rule:nonzero;stroke:none"
         id="path22" />
      <path
         d="m 2950.32,1519.3 c 0,2.4 0.09,192.36 0.34,194.71 2.55,27.38 20.17,50.61 49.58,50.61 31.89,0 772.81,0 803.18,0 28.47,0 48.79,-16.12 51.19,-45.71 0.15,-1.9 0.21,-191.5 0.21,-193.52 0,-33.44 -22.4,-59.21 -55.79,-59.21 -33.42,0 -768.3,0 -798.62,0 -30.37,0 -50.09,22.76 -50.09,53.12"
         style="fill:#aa0c31;fill-opacity:1;fill-rule:nonzero;stroke:none"
         id="path24" />
      <path
         d="m 1927.93,1519.32 c 0,2.38 0.13,192.34 0.35,194.69 2.58,27.38 20.2,50.6 49.58,50.6 31.88,0 817.59,0.01 847.97,0.01 28.51,0 48.79,-16.12 51.18,-45.71 0.16,-1.91 0.23,-191.5 0.23,-193.53 0,-33.43 -22.4,-59.2 -55.76,-59.2 -33.42,0 -813.09,0 -843.46,0 -30.36,0 -50.09,22.76 -50.09,53.14"
         style="fill:#aa0c31;fill-opacity:1;fill-rule:nonzero;stroke:none"
         id="path26" />
      <path
         d="m 933.84,1519.32 c 0,2.38 0.129,192.34 0.351,194.69 2.606,27.38 20.188,50.6 49.579,50.6 31.88,0 817.63,0 847.99,0 28.5,0 48.8,-16.11 51.19,-45.7 0.13,-1.91 0.22,-191.5 0.22,-193.53 0,-33.42 -22.4,-59.2 -55.79,-59.2 -33.42,0 -813.09,0 -843.454,0 -30.367,0 -50.086,22.76 -50.086,53.14"
         style="fill:#aa0c31;fill-opacity:1;fill-rule:nonzero;stroke:none"
         id="path28" />
      <path
         d="m 3920.84,1519.3 c 0,2.4 0.16,192.36 0.33,194.71 2.64,27.39 20.21,50.61 49.57,50.61 31.92,0 817.63,0 848.01,0 28.51,0 48.83,-16.12 51.14,-45.71 0.19,-1.9 0.26,-191.5 0.26,-193.52 0,-33.44 -22.4,-59.21 -55.79,-59.21 -33.42,0 -813.09,0 -843.42,0 -30.37,0 -50.1,22.76 -50.1,53.12"
         style="fill:#aa0c31;fill-opacity:1;fill-rule:nonzero;stroke:none"
         id="path30" />
      <path
         d="m 2950.32,96.5195 c 0,2.3399 0.09,192.3395 0.34,194.6795 2.55,27.391 20.17,50.582 49.58,50.582 31.89,0 772.81,0 803.18,0 28.47,0 48.79,-16.09 51.19,-45.711 0.15,-1.922 0.21,-191.492 0.21,-193.519 0,-33.3713 -22.4,-59.2112 -55.79,-59.2112 -33.42,0 -768.3,0 -798.62,0 -30.37,0 -50.09,22.7696 -50.09,53.1797"
         style="fill:#aa0c31;fill-opacity:1;fill-rule:nonzero;stroke:none"
         id="path32" />
      <path
         d="m 1927.93,96.5195 c 0,2.3399 0.13,192.3395 0.35,194.6795 2.58,27.391 20.2,50.582 49.58,50.582 31.88,0 817.59,0 847.97,0 28.51,0 48.79,-16.101 51.18,-45.711 0.16,-1.922 0.23,-191.492 0.23,-193.519 0,-33.3713 -22.4,-59.2112 -55.76,-59.2112 -33.42,0 -813.09,0 -843.46,0 -30.36,0 -50.09,22.7696 -50.09,53.1797"
         style="fill:#aa0c31;fill-opacity:1;fill-rule:nonzero;stroke:none"
         id="path34" />
      <path
         d="m 933.84,96.5195 c 0,2.3399 0.129,192.3395 0.351,194.6795 2.606,27.391 20.188,50.582 49.579,50.582 31.88,0 817.63,0 847.99,0 28.5,0 48.8,-16.101 51.19,-45.711 0.13,-1.89 0.22,-191.492 0.22,-193.519 0,-33.3713 -22.4,-59.2112 -55.79,-59.2112 -33.42,0 -813.09,0 -843.454,0 -30.367,0 -50.086,22.7696 -50.086,53.1797"
         style="fill:#aa0c31;fill-opacity:1;fill-rule:nonzero;stroke:none"
         id="path36" />
      <path
         d="m 3920.84,96.5313 c 0,2.3281 0.16,192.3277 0.33,194.6677 2.64,27.391 20.21,50.582 49.57,50.582 31.92,0 817.63,0 848.01,0 28.51,0 48.83,-16.09 51.14,-45.711 0.19,-1.922 0.26,-191.492 0.26,-193.519 0,-33.4104 -22.4,-59.2112 -55.79,-59.2112 -33.42,0 -813.09,0 -843.42,0 -30.37,0 -50.1,22.7696 -50.1,53.1915"
         style="fill:#aa0c31;fill-opacity:1;fill-rule:nonzero;stroke:none"
         id="path38" />
      <path
         d="m 43.375,811.199 c 0,2.364 0.1328,192.341 0.3516,194.711 2.6172,27.37 20.1875,50.59 49.5781,50.59 31.9103,0 772.8083,0 803.1723,0 28.539,0 48.828,-16.11 51.222,-45.71 0.121,-1.92 0.223,-191.485 0.223,-193.548 0,-33.39 -22.402,-59.191 -55.789,-59.191 -33.457,0 -768.274,0 -798.6721,0 -30.332,0 -50.0859,22.777 -50.0859,53.148"
         style="fill:#aa0c31;fill-opacity:1;fill-rule:nonzero;stroke:none"
         id="path40" />
      <path
         d="m 4971.49,811.199 c 0,2.364 0.09,192.341 0.35,194.711 2.56,27.37 20.17,50.59 49.59,50.59 31.87,0 772.76,0 803.12,0 28.55,0 48.86,-16.11 51.19,-45.71 0.16,-1.91 0.26,-191.485 0.26,-193.548 0,-33.383 -22.4,-59.191 -55.82,-59.191 -33.4,0 -768.24,0 -798.61,0 -30.35,0 -50.08,22.789 -50.08,53.148"
         style="fill:#aa0c31;fill-opacity:1;fill-rule:nonzero;stroke:none"
         id="path42" />
      <path
         d="m 995.109,811.199 c 0,2.364 0.09,192.341 0.344,194.711 2.578,27.37 20.157,50.59 49.587,50.59 31.87,0 817.56,0 847.93,0 28.53,0 48.82,-16.11 51.21,-45.71 0.13,-1.92 0.22,-191.485 0.22,-193.548 0,-33.39 -22.39,-59.191 -55.78,-59.191 -33.42,0 -813.06,0 -843.43,0 -30.36,0 -50.081,22.777 -50.081,53.148"
         style="fill:#aa0c31;fill-opacity:1;fill-rule:nonzero;stroke:none"
         id="path44" />
      <path
         d="m 3982.08,811.199 c 0,2.364 0.14,192.341 0.32,194.711 2.61,27.37 20.19,50.59 49.59,50.59 31.9,0 817.61,0 847.99,0 28.57,0 48.86,-16.11 51.22,-45.71 0.13,-1.91 0.23,-191.485 0.23,-193.548 0,-33.383 -22.41,-59.191 -55.83,-59.191 -33.38,0 -813.06,0 -843.42,0 -30.38,0 -50.1,22.777 -50.1,53.148"
         style="fill:#aa0c31;fill-opacity:1;fill-rule:nonzero;stroke:none"
         id="path46" />
      <path
         d="m 3513.95,454.879 c 0,2.371 0.06,192.359 0.32,194.691 2.59,27.41 20.19,50.61 49.58,50.61 31.89,0 772.8,0 803.2,0 28.47,0 48.77,-16.078 51.15,-45.692 0.17,-1.937 0.27,-191.508 0.27,-193.558 0,-33.379 -22.44,-59.2 -55.78,-59.2 -33.47,0 -768.31,0 -798.69,0 -30.32,0 -50.05,22.782 -50.05,53.149"
         style="fill:#aa0c31;fill-opacity:1;fill-rule:nonzero;stroke:none"
         id="path48" />
      <path
         d="m 545.746,454.879 c 0,2.371 0.133,192.359 0.383,194.691 2.578,27.41 20.191,50.59 49.578,50.59 31.883,0 772.783,0 803.143,0 28.54,0 48.83,-16.058 51.22,-45.672 0.13,-1.937 0.25,-191.508 0.25,-193.547 0,-33.39 -22.43,-59.211 -55.82,-59.211 -33.4,0 -768.301,0 -798.633,0 -30.363,0 -50.121,22.782 -50.121,53.149"
         style="fill:#aa0c31;fill-opacity:1;fill-rule:nonzero;stroke:none"
         id="path50" />
      <path
         d="m 2491.55,454.879 c 0,2.371 0.12,192.359 0.34,194.691 2.58,27.41 20.23,50.61 49.58,50.61 31.88,0 817.62,0 847.99,0 28.51,0 48.8,-16.078 51.18,-45.692 0.14,-1.937 0.27,-191.508 0.27,-193.558 0,-33.379 -22.44,-59.2 -55.82,-59.2 -33.43,0 -813.06,0 -843.43,0 -30.37,0 -50.11,22.782 -50.11,53.149"
         style="fill:#aa0c31;fill-opacity:1;fill-rule:nonzero;stroke:none"
         id="path52" />
      <path
         d="m 1497.48,454.879 c 0,2.371 0.12,192.359 0.35,194.691 2.58,27.41 20.18,50.59 49.57,50.59 31.88,0 817.6,0.02 847.98,0.02 28.5,0 48.82,-16.078 51.18,-45.692 0.15,-1.937 0.22,-191.508 0.22,-193.558 0,-33.379 -22.4,-59.2 -55.79,-59.2 -33.42,0 -813.06,0 -843.4,0 -30.36,0 -50.11,22.782 -50.11,53.149"
         style="fill:#aa0c31;fill-opacity:1;fill-rule:nonzero;stroke:none"
         id="path54" />
      <path
         d="m 4484.46,454.879 c 0,2.371 0.15,192.359 0.34,194.691 2.62,27.41 20.2,50.61 49.59,50.61 31.88,0 817.6,0 847.96,0 28.57,0 48.87,-16.102 51.22,-45.692 0.12,-1.937 0.24,-191.508 0.24,-193.558 0,-33.379 -22.38,-59.2 -55.84,-59.2 -33.38,0 -813.06,0 -843.42,0 -30.37,0 -50.09,22.782 -50.09,53.149"
         style="fill:#aa0c31;fill-opacity:1;fill-rule:nonzero;stroke:none"
         id="path56" />
      <path
         d="m 3011.55,811.656 c 0,2.395 0.09,192.364 0.35,194.724 2.58,27.37 20.16,50.59 49.55,50.59 31.92,0 772.83,0 803.2,0 28.51,0 48.83,-16.1 51.16,-45.7 0.19,-1.91 0.25,-191.497 0.25,-193.528 0,-33.414 -22.39,-59.211 -55.79,-59.211 -33.41,0 -768.26,0 -798.63,0 -30.37,0 -50.09,22.778 -50.09,53.125"
         style="fill:#aa0c31;fill-opacity:1;fill-rule:nonzero;stroke:none"
         id="path58" />
      <path
         d="m 1989.17,811.676 c 0,2.375 0.13,192.344 0.32,194.704 2.61,27.37 20.22,50.59 49.61,50.59 31.91,0 817.6,0 847.97,0 28.53,0 48.82,-16.1 51.18,-45.7 0.19,-1.91 0.28,-191.497 0.28,-193.54 0,-33.402 -22.42,-59.199 -55.82,-59.199 -33.42,0 -813.09,0 -843.45,0 -30.34,0 -50.09,22.778 -50.09,53.145"
         style="fill:#aa0c31;fill-opacity:1;fill-rule:nonzero;stroke:none"
         id="path60" />
      <g
         id="g62">
        <g
           id="g64"
           clip-path="url(#clipPath68)">
          <g
             id="g70"
             clip-path="url(#clipPath74)">
            <g
               id="g76"
               clip-path="url(#clipPath80)">
              <path
                 d="m 1165,492 v 1 h -2 v 820 H 4756 V 501 h -1 v -2 h -1 v -2 h -1 v -1 h -1 v -2 h -1 v -2"
                 style="fill:url(#linearGradient86);fill-opacity:1;fill-rule:nonzero;stroke:none"
                 id="path88" />
            </g>
          </g>
        </g>
      </g>
      <path
         d="M 4755.59,492.43 H 1163.82 v 819.87 l 3591.77,-0.02 z"
         style="fill:none;stroke:#231f20;stroke-width:4.89;stroke-linecap:butt;stroke-linejoin:miter;stroke-miterlimit:4;stroke-dasharray:none;stroke-opacity:1"
         id="path90" />
      <path
         d="m 1452.71,829.898 c 24.52,0 16.2,-77.039 109.88,-77.039 32.25,0 62.43,20.282 62.43,59.844 0,86.41 -187.87,55.703 -187.87,188.447 0,64 60.86,107.23 120.75,107.23 21.86,0 38.52,-5.74 51,-11.46 12.5,-6.24 20.85,-11.96 27.09,-11.96 6.23,0 9.38,5.72 10.89,10.93 h 24.52 v -92.14 h -16.7 c -36.92,0 -14.05,75.49 -88.49,75.49 -28.1,0 -53.58,-18.24 -53.58,-48.42 0,-79.129 187.91,-44.261 187.91,-180.101 0,-74.969 -69.79,-127.02 -140.56,-127.02 -46.85,0 -71.86,20.301 -84.83,20.301 -6.82,0 -9.9,-4.699 -10.44,-10.949 h -32.27 v 96.847 h 20.27"
         style="fill:#21467a;fill-opacity:1;fill-rule:nonzero;stroke:none"
         id="path92" />
      <path
         d="m 1813.65,903.547 h 29.07 c 37.7,0 14.34,30.367 44.26,30.367 h 7.78 v -86.773 h -11.68 c -25.18,0 -8.7,32.097 -40.36,32.097 h -29.07 V 757.371 h 72.45 c 62.03,0 30.81,55.945 64.2,55.945 h 10.39 v -80.265 h -242.9 v 7.82 c 0,26.899 24.29,3.891 24.29,37.309 v 214.715 c 0,33.385 -24.29,10.425 -24.29,37.315 v 7.81 h 190.87 c 11.72,0 25.13,3.03 35.15,9.54 v -81.564 h -13.04 c -25.58,0 -10.84,47.734 -60.74,47.734 h -56.38 V 903.547"
         style="fill:#21467a;fill-opacity:1;fill-rule:nonzero;stroke:none"
         id="path94" />
      <path
         d="m 2219.25,1038.02 h 106.29 v -6.5 c 0,-29.09 -25.21,-4.35 -25.21,-38.625 V 778.18 c 0,-34.289 25.21,-9.551 25.21,-38.61 v -6.519 h -121.03 v 6.519 c 0,29.059 24.25,4.321 24.25,38.61 v 203.429 h -0.81 l -83.77,-248.558 h -27.3 L 2034,978.586 h -0.86 V 778.18 c 0,-34.289 27.35,-9.551 27.35,-38.61 v -6.519 h -82.44 v 6.519 c 0,29.059 28.19,4.321 28.19,38.61 v 214.715 c 0,34.275 -24.28,9.535 -24.28,38.625 v 6.5 h 106.68 l 66.38,-193.473 64.23,193.473"
         style="fill:#21467a;fill-opacity:1;fill-rule:nonzero;stroke:none"
         id="path96" />
      <path
         d="m 2351.11,733.051 v 7.828 c 0,26.891 24.29,3.883 24.29,37.301 v 214.715 c 0,33.405 -24.29,10.415 -24.29,37.315 v 7.81 h 149.22 c 52.04,0 102.35,-20.39 102.35,-80.247 0,-73.761 -58.97,-88.078 -109.31,-88.078 h -46.41 V 778.18 c 0,-33.418 28.2,-10.41 28.2,-37.301 v -7.828 z m 95.85,160.929 h 24.3 c 29.92,0 55.53,15.204 55.53,63.356 0,45.094 -24.73,56.374 -58.12,56.374 h -21.71 V 893.98"
         style="fill:#21467a;fill-opacity:1;fill-rule:nonzero;stroke:none"
         id="path98" />
      <path
         d="m 2839.97,733.051 h -228.6 v 7.828 c 0,26.891 24.73,3.883 24.73,37.301 v 214.715 c 0,33.405 -24.73,10.415 -24.73,37.315 v 7.81 h 124.49 v -7.81 c 0,-26.9 -28.19,-3.91 -28.19,-37.315 V 757.359 h 32.1 c 98.46,0 53.36,55.957 91.53,55.957 h 8.67 v -80.265"
         style="fill:#21467a;fill-opacity:1;fill-rule:nonzero;stroke:none"
         id="path100" />
      <path
         d="m 2950.16,903.547 h 29.05 c 37.76,0 14.32,30.367 44.24,30.367 h 7.82 v -86.758 h -11.71 c -25.18,0 -8.67,32.082 -40.35,32.082 h -29.05 V 757.359 h 72.43 c 62.05,0 30.8,55.957 64.22,55.957 h 10.39 v -80.265 h -242.93 v 7.828 c 0,26.891 24.31,3.883 24.31,37.301 v 214.715 c 0,33.405 -24.31,10.415 -24.31,37.315 v 7.81 h 190.86 c 11.75,0 25.16,3.05 35.15,9.54 v -81.564 h -13 c -25.58,0 -10.84,47.714 -60.71,47.714 h -56.41 V 903.547"
         style="fill:#21467a;fill-opacity:1;fill-rule:nonzero;stroke:none"
         id="path102" />
      <path
         d="m 3475.94,1098.98 h 127.49 v -7.77 c 0,-34.89 -30.16,-5.22 -30.16,-46.34 V 787.191 c 0,-41.101 30.16,-11.441 30.16,-46.312 v -7.828 H 3458.2 v 7.828 c 0,34.871 29.17,5.211 29.17,46.312 v 244.129 h -1.03 l -100.5,-298.269 h -32.78 l -99.43,294.639 h -1.04 V 787.191 c 0,-41.101 32.75,-11.441 32.75,-46.312 v -7.828 h -98.83 v 7.828 c 0,34.871 33.8,5.211 33.8,46.312 v 257.679 c 0,41.12 -29.15,11.45 -29.15,46.34 v 7.77 h 128.06 l 79.67,-232.152 77.05,232.152"
         style="fill:#21467a;fill-opacity:1;fill-rule:nonzero;stroke:none"
         id="path104" />
      <path
         d="m 3701.45,820.691 -12.58,-29.062 c -3.01,-6.52 -6.51,-15.188 -6.51,-22.988 0,-23.422 29.07,0 29.07,-29.071 v -6.519 h -90.62 v 6.519 c 0,32.989 16.91,-5.648 40.31,54.239 l 77.22,196.933 -3.93,9.968 c -0.87,2.15 -6.02,13 -6.02,16.06 0,5.19 6.89,7.37 10.39,9.1 l 36.85,17.37 c 2.18,1.28 7.38,3.88 10.42,3.88 5.2,0 7.38,-9.1 9.98,-16.05 l 100.18,-253.769 c 13.49,-34.692 32.99,-6.93 32.99,-37.731 v -6.519 h -129.69 v 6.519 c 0,29.5 23.85,8.692 23.85,27.34 0,5.211 -1.73,9.102 -3.92,13.86 l -16.91,39.921 z m 8.28,24.317 h 85.44 l -43.39,108.418 -42.05,-108.418"
         style="fill:#21467a;fill-opacity:1;fill-rule:nonzero;stroke:none"
         id="path106" />
      <path
         d="m 3893.19,1047.56 c 9.98,-6.49 23.44,-9.54 35.17,-9.54 h 187.79 c 11.72,0 25.18,3.04 35.16,9.55 v -82.425 h -12.16 c -29.49,0 8.68,50.305 -65.04,50.305 h -16.1 V 778.18 c 0,-34.289 27.8,-9.539 27.8,-38.61 v -6.519 h -127.13 v 6.519 c 0,29.071 27.79,4.321 27.79,38.61 v 237.27 h -16.06 c -73.76,0 -35.57,-50.305 -65.06,-50.305 h -12.16 v 82.415"
         style="fill:#21467a;fill-opacity:1;fill-rule:nonzero;stroke:none"
         id="path108" />
      <path
         d="m 4385.52,902.238 v 90.657 c 0,34.275 -24.26,9.535 -24.26,38.625 v 6.5 h 120.13 v -6.5 c 0,-29.09 -24.28,-4.35 -24.28,-38.625 V 778.18 c 0,-34.289 24.28,-9.539 24.28,-38.61 v -6.519 h -121.46 v 6.519 c 0,29.071 25.59,4.321 25.59,38.61 v 98.039 h -119.3 V 778.18 c 0,-34.289 24.33,-9.539 24.33,-38.61 v -6.519 H 4170.4 v 6.519 c 0,29.071 24.28,4.321 24.28,38.61 v 214.715 c 0,34.275 -24.28,9.535 -24.28,38.625 v 6.5 h 120.15 v -6.5 c 0,-29.09 -24.33,-4.35 -24.33,-38.625 v -90.657 h 119.3"
         style="fill:#21467a;fill-opacity:1;fill-rule:nonzero;stroke:none"
         id="path110" />
      <path
         d="m 4998.42,234.059 h 90.88 v -13.618 h -37.81 v -102.3 h -15.27 v 102.3 h -37.8 v 13.618"
         style="fill:#21467a;fill-opacity:1;fill-rule:nonzero;stroke:none"
         id="path112" />
      <path
         d="m 5105.36,234.059 h 22.92 l 32.6,-98.668 33.54,98.668 h 20.56 V 118.141 h -14.8 v 96.949 l -33.08,-96.949 h -13.86 l -33.07,98.281 v -98.281 h -14.81 v 115.918"
         style="fill:#21467a;fill-opacity:1;fill-rule:nonzero;stroke:none"
         id="path114" />
    </g>
  </g>
</svg>
